<?xml version="1.0" encoding="UTF-8" standalone="no"?><!DOCTYPE svg PUBLIC "-//W3C//DTD SVG 1.1//EN" "http://www.w3.org/Graphics/SVG/1.1/DTD/svg11.dtd"><svg width="100%" height="100%" viewBox="0 0 3334 4167" version="1.1" xmlns="http://www.w3.org/2000/svg" xmlns:xlink="http://www.w3.org/1999/xlink" xml:space="preserve" xmlns:serif="http://www.serif.com/" style="fill-rule:evenodd;clip-rule:evenodd;"><g id="layer1"><path id="path3440" d="M2161.551,263.333l-372.766,557.306c-8.302,-0.17 -16.837,-0.614 -25.179,-0.614c-644.482,-0 -1174.796,509.721 -1174.796,1140.099c0,174.043 40.599,338.916 112.69,486.376l-219.545,328.243l-166.424,-111.461l-97.337,728.337l462.426,-245.031l-68.166,510.941l445.231,-235.819l-65.71,491.903l661.706,-350.351l-186.076,-124.665l227.528,-340.218c22.737,1.286 45.425,1.842 68.473,1.842c644.481,-0 1174.796,-509.721 1174.796,-1140.098c0,-188.84 -47.426,-366.805 -131.42,-523.53l340.525,-509.099l-212.176,-142.167l-285.562,427.115c-45.641,-50.819 -96.065,-97.397 -150.15,-139.71l268.367,-401.322l-212.176,-142.167l-273.28,408.691c-67.514,-32.449 -138.554,-58.836 -212.483,-78.299l303.678,-454.136l-212.176,-142.167Zm-256.392,842.561c78.26,11.771 152.933,33.236 222.923,62.946l-962.006,1438.557c-58.062,-49.622 -109.253,-106.459 -152.3,-168.881l891.383,-1332.622Zm-310.126,4.299l-705.614,1055.044c-16.56,-65.761 -25.486,-134.519 -25.486,-205.113c-0,-421.411 312.465,-774.158 731.1,-849.931Zm751.98,190.682c53.829,44.061 101.996,94.271 143.702,149.229l-907.964,1357.801c-70.613,-13.751 -138.044,-35.329 -201.429,-63.868l965.691,-1443.163Zm277.886,407.77c25.047,79.659 38.382,164.047 38.382,251.479c0,437.933 -337.152,801.766 -780.536,857.607l742.154,-1109.086Zm-1772.02,970.297c48.086,57.228 101.865,109.672 160.283,156.906l-136.026,203.578l-183.312,-122.822l159.055,-237.661Zm374.608,295.081c61.494,30.807 126.051,56.468 193.138,76.457l-163.968,245.031l-168.574,-112.997l139.403,-208.491Z" style="fill:#fff;fill-rule:nonzero;stroke:#fff;stroke-width:39.3px;"/></g></svg>